<svg width="101" height="101" viewBox="0 0 101 101" fill="none" xmlns="http://www.w3.org/2000/svg">
<rect x="0.177673" y="0.788818" width="100" height="100" rx="19" fill="#131521"/>
<path d="M27.6268 55.3266C25.8172 55.3266 24.0375 55.3217 22.2577 55.3266C19.2716 55.3366 17.2035 52.9901 17.6029 50.0371C17.863 48.1082 19.7339 46.3516 21.6827 46.3185C24.5214 46.2704 27.3633 46.2903 30.2037 46.2969C30.5401 46.2969 30.6859 46.1992 30.7919 45.8727C32.0928 41.8989 33.4152 37.9301 34.716 33.9563C34.8221 33.6315 34.8917 33.2603 34.8436 32.9289C34.7293 32.1235 34.1195 31.6512 33.3042 31.6512C30.5069 31.6512 27.7113 31.6546 24.9141 31.6512C23.3266 31.6479 22.0075 31.0547 21.0878 29.7422C20.0206 28.221 19.9245 26.5821 20.7978 24.9548C21.628 23.4021 23.0034 22.6017 24.7583 22.595C30.7621 22.5702 36.7676 22.5685 42.773 22.5901C46.0392 22.6017 48.2299 25.7734 47.1909 28.8822C45.3034 34.533 43.4342 40.1888 41.5583 45.8429C41.5185 45.9639 41.4937 46.0915 41.4473 46.2721C41.6561 46.282 41.8251 46.2969 41.9925 46.2969C48.0708 46.2969 54.1475 46.292 60.2259 46.3019C60.5507 46.3019 60.6882 46.1959 60.786 45.8992C62.1067 41.8691 63.4407 37.8439 64.7631 33.8138C65.1608 32.6041 64.4549 31.6512 63.1871 31.6512C60.4048 31.6512 57.6242 31.6628 54.8419 31.6512C52.6859 31.6413 50.8863 30.2609 50.3775 28.2624C49.6451 25.3856 51.7447 22.61 54.7358 22.595C60.7561 22.5636 66.7748 22.5602 72.7952 22.5917C76.0249 22.6083 78.2173 25.7254 77.2065 28.8159C75.6968 33.431 74.1573 38.0378 72.6295 42.6463C72.2748 43.7185 71.9186 44.7906 71.5639 45.8644C71.5242 45.9854 71.4943 46.1113 71.443 46.2969H71.965C74.0546 46.2969 76.1442 46.2936 78.2339 46.2969C80.2572 46.3003 81.9359 47.4951 82.5606 49.3693C83.187 51.2468 82.5722 53.2304 80.9648 54.4368C80.1661 55.0366 79.2497 55.325 78.2488 55.3266C75.1433 55.3283 72.0379 55.3266 68.9324 55.3266C68.7717 55.3266 68.6109 55.3266 68.4303 55.3266C67.6896 57.5555 66.9538 59.7661 66.2197 61.9784C64.6819 66.6167 63.1523 71.2566 61.6013 75.8916C60.9782 77.7526 59.2018 79.0037 57.2248 79.0053C48.7337 79.0103 40.2409 79.007 31.7498 79.0053C29.9833 79.0053 28.2184 79.002 26.4519 79.002C23.1509 79.002 20.8873 75.9645 21.8981 72.8259C23.1078 69.0692 24.3689 65.3291 25.6068 61.5823C26.2547 59.6169 26.901 57.6516 27.5456 55.6862C27.5804 55.5785 27.597 55.4658 27.6285 55.3233L27.6268 55.3266ZM57.6441 55.3532C57.5065 55.3416 57.4203 55.3283 57.3325 55.3283C51.1365 55.3283 44.9405 55.3283 38.7445 55.3233C38.4959 55.3233 38.3882 55.3996 38.312 55.6332C36.9681 59.7164 35.6125 63.7979 34.2703 67.881C34.194 68.1114 34.1543 68.3765 34.1874 68.6118C34.31 69.4802 34.953 69.9773 35.9042 69.9773C41.0545 69.9773 46.2049 69.9773 51.3553 69.9773C52.5003 69.9773 52.9295 69.6757 53.2941 68.5737C54.4607 65.049 55.629 61.526 56.7923 57.9996C57.0806 57.1263 57.3557 56.248 57.6441 55.3515V55.3532Z" fill="white"/>
</svg>
