<svg width="190" height="164" viewBox="0 0 190 164" fill="none" xmlns="http://www.w3.org/2000/svg">
<path d="M29.2684 95.1768C24.0106 95.1768 18.8394 95.1623 13.6683 95.1768C4.99191 95.2056 -1.01704 88.3878 0.143341 79.8077C0.899274 74.2032 6.33525 69.0995 11.9975 69.0032C20.2454 68.8635 28.5029 68.9213 36.7555 68.9406C37.733 68.9406 38.1567 68.6565 38.4648 67.708C42.2445 56.1619 46.0867 44.6303 49.8664 33.0843C50.1746 32.1406 50.3768 31.0621 50.2372 30.0991C49.9049 27.7591 48.1331 26.3868 45.7642 26.3868C37.6367 26.3868 29.514 26.3965 21.3865 26.3868C16.7739 26.3772 12.9412 24.6535 10.269 20.8401C7.16822 16.4201 6.88896 11.6582 9.42639 6.92998C11.8386 2.41845 15.835 0.0928758 20.9339 0.0736163C38.3782 0.00139343 55.8272 -0.00342144 73.2763 0.0591718C82.7664 0.0928758 89.1316 9.30852 86.1127 18.3412C80.6286 34.7599 75.1974 51.193 69.747 67.6213C69.6314 67.9728 69.5592 68.3435 69.4244 68.8684C70.0311 68.8972 70.5222 68.9406 71.0085 68.9406C88.6694 68.9406 106.325 68.9261 123.986 68.955C124.93 68.955 125.33 68.6469 125.614 67.785C129.451 56.0753 133.327 44.38 137.169 32.6702C138.325 29.1554 136.274 26.3868 132.591 26.3868C124.506 26.3868 116.427 26.4205 108.343 26.3868C102.079 26.3579 96.8498 22.3472 95.3717 16.5404C93.2435 8.18184 99.3439 0.11695 108.035 0.0736163C125.527 -0.017866 143.015 -0.0274957 160.507 0.0639866C169.891 0.112135 176.261 9.16889 173.324 18.1486C168.938 31.558 164.465 44.9433 160.026 58.3334C158.995 61.4487 157.96 64.5639 156.93 67.6839C156.814 68.0354 156.727 68.4013 156.578 68.9406H158.095C164.166 68.9406 170.238 68.9309 176.309 68.9406C182.188 68.9502 187.066 72.4217 188.881 77.8673C190.701 83.3226 188.915 89.086 184.244 92.5912C181.924 94.3342 179.261 95.1719 176.353 95.1768C167.33 95.1816 158.307 95.1768 149.284 95.1768C148.817 95.1768 148.35 95.1768 147.825 95.1768C145.673 101.653 143.535 108.076 141.402 114.504C136.934 127.98 132.489 141.462 127.983 154.929C126.172 160.336 121.011 163.971 115.267 163.976C90.5953 163.991 65.9192 163.981 41.2478 163.976C36.1152 163.976 30.9873 163.967 25.8547 163.967C16.2635 163.967 9.6864 155.141 12.6235 146.022C16.1383 135.106 19.8024 124.239 23.3991 113.353C25.2817 107.642 27.1595 101.932 29.0325 96.2216C29.1336 95.9086 29.1818 95.5812 29.2732 95.1671L29.2684 95.1768ZM116.485 95.2538C116.085 95.2201 115.835 95.1816 115.58 95.1816C97.5769 95.1816 79.5741 95.1816 61.5713 95.1671C60.8491 95.1671 60.5361 95.3886 60.3147 96.0675C56.4098 107.931 52.4713 119.79 48.5712 131.654C48.3497 132.323 48.2342 133.094 48.3305 133.777C48.6868 136.3 50.5549 137.745 53.3187 137.745C68.2833 137.745 83.2478 137.745 98.2124 137.745C101.54 137.745 102.787 136.869 103.846 133.667C107.235 123.426 110.63 113.189 114.01 102.943C114.848 100.406 115.647 97.8538 116.485 95.249V95.2538Z" fill="black"/>
</svg>
