<svg width="807" height="142" viewBox="0 0 807 142" fill="none" xmlns="http://www.w3.org/2000/svg">
<path d="M25.7332 82.4918C21.2063 82.4918 16.7541 82.4793 12.3018 82.4918C4.83162 82.5167 -0.341959 76.6466 0.657105 69.2594C1.30795 64.434 5.98821 60.0398 10.8633 59.9569C17.9645 59.8367 25.0741 59.8864 32.1794 59.903C33.021 59.903 33.3858 59.6584 33.6511 58.8417C36.9053 48.9009 40.2134 38.9724 43.4676 29.0315C43.7329 28.219 43.907 27.2904 43.7868 26.4613C43.5008 24.4466 41.9752 23.2651 39.9356 23.2651C32.9381 23.2651 25.9446 23.2734 18.947 23.2651C14.9756 23.2568 11.6758 21.7728 9.37508 18.4895C6.70538 14.684 6.46494 10.5841 8.64961 6.51319C10.7265 2.62887 14.1673 0.626595 18.5573 0.610013C33.5765 0.547831 48.5997 0.543685 63.623 0.597576C71.7938 0.626595 77.2741 8.56107 74.6749 16.338C69.9532 30.4741 65.277 44.6227 60.5843 58.7671C60.4849 59.0697 60.4227 59.389 60.3066 59.8408C60.8289 59.8657 61.2518 59.903 61.6705 59.903C76.8761 59.903 92.0777 59.8906 107.283 59.9154C108.096 59.9154 108.44 59.6501 108.685 58.9081C111.988 48.8262 115.326 38.7568 118.634 28.675C119.629 25.6488 117.863 23.2651 114.691 23.2651C107.731 23.2651 100.775 23.2941 93.8146 23.2651C88.4213 23.2403 83.9193 19.7871 82.6467 14.7876C80.8143 7.59102 86.0667 0.647322 93.5493 0.610013C108.61 0.531249 123.666 0.522958 138.727 0.601722C146.806 0.643177 152.291 8.44085 149.762 16.1722C145.986 27.7174 142.134 39.2419 138.312 50.7705C137.425 53.4526 136.534 56.1347 135.647 58.821C135.547 59.1236 135.473 59.4387 135.344 59.903H136.65C141.877 59.903 147.105 59.8947 152.332 59.903C157.394 59.9113 161.593 62.9002 163.156 67.5887C164.723 72.2856 163.185 77.2477 159.164 80.2657C157.166 81.7663 154.874 82.4876 152.37 82.4918C144.601 82.4959 136.832 82.4918 129.064 82.4918C128.662 82.4918 128.259 82.4918 127.808 82.4918C125.955 88.0675 124.114 93.5976 122.278 99.1318C118.431 110.735 114.604 122.342 110.724 133.937C109.165 138.593 104.721 141.723 99.7758 141.727C78.5343 141.739 57.2887 141.731 36.0472 141.727C31.6281 141.727 27.2131 141.718 22.794 141.718C14.5362 141.718 8.87347 134.12 11.4022 126.268C14.4284 116.87 17.5831 107.514 20.6798 98.141C22.3007 93.2245 23.9175 88.3079 25.5301 83.3913C25.6171 83.1219 25.6586 82.84 25.7373 82.4835L25.7332 82.4918ZM100.825 82.5581C100.481 82.5291 100.265 82.4959 100.045 82.4959C84.5453 82.4959 69.0453 82.4959 53.5453 82.4835C52.9235 82.4835 52.654 82.6742 52.4633 83.2587C49.1013 93.4732 45.7103 103.684 42.3525 113.898C42.1618 114.474 42.0623 115.138 42.1452 115.726C42.452 117.898 44.0604 119.142 46.4399 119.142C59.3241 119.142 72.2083 119.142 85.0925 119.142C87.957 119.142 89.0307 118.388 89.9427 115.631C92.8611 106.813 95.7837 98.0001 98.6939 89.1785C99.4152 86.9938 100.103 84.7967 100.825 82.554V82.5581Z" fill="white"/>
<path d="M226.092 104.84C221.492 104.84 217.358 104.04 213.692 102.44C210.092 100.773 207.258 98.5066 205.192 95.64C203.125 92.7066 202.058 89.34 201.992 85.54H211.692C212.025 88.8066 213.358 91.5733 215.692 93.84C218.092 96.04 221.558 97.14 226.092 97.14C230.425 97.14 233.825 96.0733 236.292 93.9399C238.825 91.7399 240.092 88.94 240.092 85.54C240.092 82.8733 239.358 80.7066 237.892 79.04C236.425 77.3733 234.592 76.1066 232.392 75.24C230.192 74.3733 227.225 73.44 223.492 72.44C218.892 71.24 215.192 70.04 212.392 68.84C209.658 67.64 207.292 65.7733 205.292 63.24C203.358 60.64 202.392 57.1733 202.392 52.84C202.392 49.04 203.358 45.6733 205.292 42.74C207.225 39.8066 209.925 37.5399 213.392 35.9399C216.925 34.3399 220.958 33.54 225.492 33.54C232.025 33.54 237.358 35.1733 241.492 38.44C245.692 41.7066 248.058 46.04 248.592 51.44H238.592C238.258 48.7733 236.858 46.44 234.392 44.44C231.925 42.3733 228.658 41.34 224.592 41.34C220.792 41.34 217.692 42.34 215.292 44.34C212.892 46.2733 211.692 49.0066 211.692 52.54C211.692 55.0733 212.392 57.14 213.792 58.74C215.258 60.34 217.025 61.5733 219.092 62.4399C221.225 63.2399 224.192 64.1733 227.992 65.24C232.592 66.5066 236.292 67.7733 239.092 69.04C241.892 70.24 244.292 72.14 246.292 74.74C248.292 77.2733 249.292 80.74 249.292 85.14C249.292 88.54 248.392 91.74 246.592 94.74C244.792 97.74 242.125 100.173 238.592 102.04C235.058 103.907 230.892 104.84 226.092 104.84Z" fill="white"/>
<path d="M311.283 49.34V104.14H302.183V96.04C300.45 98.84 298.017 101.04 294.883 102.64C291.817 104.173 288.417 104.94 284.683 104.94C280.417 104.94 276.583 104.073 273.183 102.34C269.783 100.54 267.083 97.8733 265.083 94.34C263.15 90.8066 262.183 86.5066 262.183 81.44V49.34H271.183V80.24C271.183 85.64 272.55 89.8066 275.283 92.74C278.017 95.6066 281.75 97.04 286.483 97.04C291.35 97.04 295.183 95.54 297.983 92.54C300.783 89.54 302.183 85.1733 302.183 79.44V49.34H311.283Z" fill="white"/>
<path d="M353.348 48.34C360.015 48.34 365.415 50.3733 369.548 54.44C373.681 58.44 375.748 64.24 375.748 71.84V104.14H366.748V73.14C366.748 67.6733 365.381 63.5066 362.648 60.6399C359.915 57.7066 356.181 56.24 351.448 56.24C346.648 56.24 342.815 57.74 339.948 60.74C337.148 63.74 335.748 68.1066 335.748 73.84V104.14H326.648V49.34H335.748V57.1399C337.548 54.34 339.981 52.1733 343.048 50.6399C346.181 49.1066 349.615 48.34 353.348 48.34Z" fill="white"/>
<path d="M387.213 76.54C387.213 70.94 388.346 66.04 390.613 61.84C392.88 57.5733 395.98 54.2733 399.913 51.94C403.913 49.6066 408.38 48.4399 413.313 48.4399C417.58 48.4399 421.546 49.44 425.213 51.44C428.88 53.3733 431.68 55.9399 433.613 59.1399V30.14H442.813V104.14H433.613V93.84C431.813 97.1066 429.146 99.8066 425.613 101.94C422.08 104.007 417.946 105.04 413.213 105.04C408.346 105.04 403.913 103.84 399.913 101.44C395.98 99.04 392.88 95.6733 390.613 91.34C388.346 87.0066 387.213 82.0733 387.213 76.54ZM433.613 76.64C433.613 72.5066 432.78 68.9066 431.113 65.84C429.446 62.7733 427.18 60.4399 424.313 58.84C421.513 57.1733 418.413 56.34 415.013 56.34C411.613 56.34 408.513 57.14 405.713 58.74C402.913 60.34 400.68 62.6733 399.013 65.74C397.346 68.8066 396.513 72.4066 396.513 76.54C396.513 80.74 397.346 84.4066 399.013 87.54C400.68 90.6066 402.913 92.9733 405.713 94.64C408.513 96.24 411.613 97.04 415.013 97.04C418.413 97.04 421.513 96.24 424.313 94.64C427.18 92.9733 429.446 90.6066 431.113 87.54C432.78 84.4066 433.613 80.7733 433.613 76.64Z" fill="white"/>
<path d="M454.791 76.54C454.791 70.94 455.924 66.04 458.191 61.84C460.458 57.5733 463.558 54.2733 467.491 51.94C471.491 49.6066 475.924 48.4399 480.791 48.4399C485.591 48.4399 489.758 49.4733 493.291 51.54C496.824 53.6066 499.458 56.2066 501.191 59.34V49.34H510.391V104.14H501.191V93.9399C499.391 97.1399 496.691 99.8066 493.091 101.94C489.558 104.007 485.424 105.04 480.691 105.04C475.824 105.04 471.424 103.84 467.491 101.44C463.558 99.04 460.458 95.6733 458.191 91.34C455.924 87.0066 454.791 82.0733 454.791 76.54ZM501.191 76.64C501.191 72.5066 500.358 68.9066 498.691 65.84C497.024 62.7733 494.758 60.4399 491.891 58.84C489.091 57.1733 485.991 56.34 482.591 56.34C479.191 56.34 476.091 57.14 473.291 58.74C470.491 60.34 468.258 62.6733 466.591 65.74C464.924 68.8066 464.091 72.4066 464.091 76.54C464.091 80.74 464.924 84.4066 466.591 87.54C468.258 90.6066 470.491 92.9733 473.291 94.64C476.091 96.24 479.191 97.04 482.591 97.04C485.991 97.04 489.091 96.24 491.891 94.64C494.758 92.9733 497.024 90.6066 498.691 87.54C500.358 84.4066 501.191 80.7733 501.191 76.64Z" fill="white"/>
<path d="M541.369 56.24C543.036 53.64 545.336 51.54 548.269 49.9399C551.202 48.3399 554.636 47.54 558.569 47.54C563.169 47.54 567.336 48.7066 571.069 51.04C574.802 53.3733 577.736 56.7066 579.869 61.04C582.069 65.3733 583.169 70.4066 583.169 76.14C583.169 81.8733 582.069 86.94 579.869 91.34C577.736 95.6733 574.802 99.04 571.069 101.44C567.336 103.773 563.169 104.94 558.569 104.94C554.702 104.94 551.269 104.14 548.269 102.54C545.336 100.94 543.036 98.8733 541.369 96.34V130.74H524.269V48.34H541.369V56.24ZM565.769 76.14C565.769 71.8733 564.569 68.54 562.169 66.14C559.836 63.6733 556.936 62.4399 553.469 62.4399C550.069 62.4399 547.169 63.6733 544.769 66.14C542.436 68.6066 541.269 71.9733 541.269 76.24C541.269 80.5066 542.436 83.8733 544.769 86.34C547.169 88.8066 550.069 90.04 553.469 90.04C556.869 90.04 559.769 88.8066 562.169 86.34C564.569 83.8066 565.769 80.4066 565.769 76.14Z" fill="white"/>
<path d="M644.74 75.34C644.74 76.94 644.64 78.6066 644.44 80.34H605.74C606.007 83.8066 607.107 86.4733 609.04 88.34C611.04 90.14 613.474 91.04 616.34 91.04C620.607 91.04 623.574 89.24 625.24 85.64H643.44C642.507 89.3066 640.807 92.6066 638.34 95.54C635.94 98.4733 632.907 100.773 629.24 102.44C625.574 104.107 621.474 104.94 616.94 104.94C611.474 104.94 606.607 103.773 602.34 101.44C598.074 99.1066 594.74 95.7733 592.34 91.44C589.94 87.1066 588.74 82.04 588.74 76.24C588.74 70.44 589.907 65.3733 592.24 61.04C594.64 56.7066 597.974 53.3733 602.24 51.04C606.507 48.7066 611.407 47.54 616.94 47.54C622.34 47.54 627.14 48.6733 631.34 50.94C635.54 53.2066 638.807 56.4399 641.14 60.6399C643.54 64.84 644.74 69.74 644.74 75.34ZM627.24 70.84C627.24 67.9066 626.24 65.5733 624.24 63.84C622.24 62.1066 619.74 61.24 616.74 61.24C613.874 61.24 611.44 62.0733 609.44 63.74C607.507 65.4066 606.307 67.7733 605.84 70.84H627.24Z" fill="white"/>
<path d="M650.361 76.14C650.361 70.4066 651.428 65.3733 653.561 61.04C655.761 56.7066 658.728 53.3733 662.461 51.04C666.195 48.7066 670.361 47.54 674.961 47.54C678.628 47.54 681.961 48.3066 684.961 49.84C688.028 51.3733 690.428 53.44 692.161 56.04V30.14H709.261V104.14H692.161V96.14C690.561 98.8066 688.261 100.94 685.261 102.54C682.328 104.14 678.895 104.94 674.961 104.94C670.361 104.94 666.195 103.773 662.461 101.44C658.728 99.04 655.761 95.6733 653.561 91.34C651.428 86.94 650.361 81.8733 650.361 76.14ZM692.161 76.24C692.161 71.9733 690.961 68.6066 688.561 66.14C686.228 63.6733 683.361 62.4399 679.961 62.4399C676.561 62.4399 673.661 63.6733 671.261 66.14C668.928 68.54 667.761 71.8733 667.761 76.14C667.761 80.4066 668.928 83.8066 671.261 86.34C673.661 88.8066 676.561 90.04 679.961 90.04C683.361 90.04 686.228 88.8066 688.561 86.34C690.961 83.8733 692.161 80.5066 692.161 76.24Z" fill="white"/>
<path d="M730.232 42.5399C727.232 42.5399 724.766 41.6733 722.832 39.94C720.966 38.14 720.032 35.94 720.032 33.34C720.032 30.6733 720.966 28.4733 722.832 26.7399C724.766 24.9399 727.232 24.0399 730.232 24.0399C733.166 24.0399 735.566 24.9399 737.432 26.7399C739.366 28.4733 740.332 30.6733 740.332 33.34C740.332 35.94 739.366 38.14 737.432 39.94C735.566 41.6733 733.166 42.5399 730.232 42.5399ZM738.732 48.34V104.14H721.632V48.34H738.732Z" fill="white"/>
<path d="M747.725 76.14C747.725 70.4066 748.791 65.3733 750.925 61.04C753.125 56.7066 756.091 53.3733 759.825 51.04C763.558 48.7066 767.725 47.54 772.325 47.54C776.258 47.54 779.691 48.3399 782.625 49.9399C785.625 51.54 787.925 53.64 789.525 56.24V48.34H806.625V104.14H789.525V96.24C787.858 98.84 785.525 100.94 782.525 102.54C779.591 104.14 776.158 104.94 772.225 104.94C767.691 104.94 763.558 103.773 759.825 101.44C756.091 99.04 753.125 95.6733 750.925 91.34C748.791 86.94 747.725 81.8733 747.725 76.14ZM789.525 76.24C789.525 71.9733 788.325 68.6066 785.925 66.14C783.591 63.6733 780.725 62.4399 777.325 62.4399C773.925 62.4399 771.025 63.6733 768.625 66.14C766.291 68.54 765.125 71.8733 765.125 76.14C765.125 80.4066 766.291 83.8066 768.625 86.34C771.025 88.8066 773.925 90.04 777.325 90.04C780.725 90.04 783.591 88.8066 785.925 86.34C788.325 83.8733 789.525 80.5066 789.525 76.24Z" fill="white"/>
</svg>
