<svg width="191" height="165" viewBox="0 0 191 165" fill="none" xmlns="http://www.w3.org/2000/svg">
<path d="M30.1284 95.8486C24.8706 95.8486 19.6994 95.8342 14.5283 95.8486C5.85189 95.8775 -0.157055 89.0597 1.00333 80.4796C1.75926 74.8751 7.19524 69.7713 12.8575 69.675C21.1054 69.5354 29.3629 69.5932 37.6155 69.6124C38.5929 69.6124 39.0167 69.3284 39.3248 68.3798C43.1045 56.8338 46.9467 45.3022 50.7264 33.7562C51.0345 32.8125 51.2368 31.7339 51.0971 30.771C50.7649 28.4309 48.993 27.0587 46.6241 27.0587C38.4967 27.0587 30.374 27.0683 22.2465 27.0587C17.6339 27.0491 13.8012 25.3254 11.129 21.512C8.02821 17.0919 7.74895 12.33 10.2864 7.60185C12.6986 3.09033 16.695 0.764751 21.7939 0.745491C39.2381 0.673268 56.6872 0.668454 74.1363 0.731047C83.6263 0.764751 89.9916 9.9804 86.9727 19.0131C81.4886 35.4318 76.0574 51.8649 70.607 68.2932C70.4914 68.6447 70.4192 69.0154 70.2844 69.5402C70.891 69.5691 71.3822 69.6124 71.8685 69.6124C89.5294 69.6124 107.185 69.598 124.846 69.6269C125.79 69.6269 126.19 69.3187 126.474 68.4569C130.311 56.7471 134.187 45.0518 138.029 33.3421C139.185 29.8272 137.134 27.0587 133.451 27.0587C125.366 27.0587 117.287 27.0924 109.203 27.0587C102.939 27.0298 97.7098 23.019 96.2317 17.2123C94.1035 8.85372 100.204 0.788825 108.895 0.745491C126.387 0.654009 143.875 0.644379 161.367 0.735862C170.751 0.78401 177.121 9.84076 174.184 18.8205C169.798 32.2299 165.325 45.6152 160.886 59.0053C159.855 62.1205 158.82 65.2357 157.79 68.3558C157.674 68.7073 157.587 69.0732 157.438 69.6124H158.955C165.026 69.6124 171.098 69.6028 177.169 69.6124C183.048 69.6221 187.926 73.0936 189.741 78.5392C191.561 83.9944 189.775 89.7578 185.104 93.2631C182.784 95.006 180.121 95.8438 177.213 95.8486C168.19 95.8534 159.167 95.8486 150.144 95.8486C149.677 95.8486 149.21 95.8486 148.685 95.8486C146.532 102.325 144.395 108.748 142.262 115.175C137.794 128.652 133.349 142.134 128.843 155.601C127.032 161.008 121.871 164.643 116.127 164.648C91.4553 164.663 66.7791 164.653 42.1078 164.648C36.9752 164.648 31.8473 164.639 26.7147 164.639C17.1235 164.639 10.5464 155.813 13.4834 146.694C16.9983 135.778 20.6624 124.911 24.2591 114.025C26.1417 108.314 28.0195 102.604 29.8925 96.8935C29.9936 96.5805 30.0418 96.2531 30.1332 95.839L30.1284 95.8486ZM117.345 95.9257C116.945 95.892 116.695 95.8534 116.44 95.8534C98.4369 95.8534 80.4341 95.8534 62.4313 95.839C61.7091 95.839 61.3961 96.0605 61.1746 96.7394C57.2698 108.603 53.3312 120.462 49.4312 132.326C49.2097 132.995 49.0942 133.766 49.1905 134.449C49.5468 136.972 51.4149 138.417 54.1786 138.417C69.1432 138.417 84.1078 138.417 99.0724 138.417C102.399 138.417 103.647 137.541 104.706 134.339C108.095 124.097 111.49 113.861 114.87 103.615C115.708 101.078 116.507 98.5257 117.345 95.9209V95.9257Z" fill="#B9935D"/>
</svg>
